<svg width="271" height="87" viewBox="0 0 271 87" fill="none" xmlns="http://www.w3.org/2000/svg">
<path d="M129.334 15.019C129.334 13.6543 129.533 12.4507 129.932 11.408C130.346 10.3653 130.898 9.499 131.588 8.809C132.293 8.10367 133.106 7.57467 134.026 7.222C134.961 6.86933 135.95 6.693 136.993 6.693C138.02 6.693 138.986 6.86933 139.891 7.222C140.811 7.57467 141.616 8.10367 142.306 8.809C142.996 9.499 143.54 10.3653 143.939 11.408C144.353 12.4507 144.56 13.6543 144.56 15.019C144.56 16.3837 144.353 17.5873 143.939 18.63C143.54 19.6727 142.996 20.5467 142.306 21.252C141.616 21.942 140.811 22.4633 139.891 22.816C138.986 23.1687 138.02 23.345 136.993 23.345C135.95 23.345 134.961 23.1687 134.026 22.816C133.106 22.4633 132.293 21.942 131.588 21.252C130.898 20.5467 130.346 19.6727 129.932 18.63C129.533 17.5873 129.334 16.3837 129.334 15.019ZM131.68 15.019C131.68 15.985 131.803 16.8667 132.048 17.664C132.293 18.446 132.638 19.113 133.083 19.665C133.543 20.217 134.095 20.6463 134.739 20.953C135.398 21.2443 136.134 21.39 136.947 21.39C137.76 21.39 138.488 21.2443 139.132 20.953C139.776 20.6463 140.32 20.217 140.765 19.665C141.225 19.113 141.578 18.446 141.823 17.664C142.068 16.8667 142.191 15.985 142.191 15.019C142.191 14.053 142.068 13.179 141.823 12.397C141.578 11.5997 141.225 10.925 140.765 10.373C140.32 9.821 139.776 9.39933 139.132 9.108C138.488 8.80133 137.76 8.648 136.947 8.648C136.134 8.648 135.398 8.80133 134.739 9.108C134.095 9.39933 133.543 9.821 133.083 10.373C132.638 10.925 132.293 11.5997 132.048 12.397C131.803 13.179 131.68 14.053 131.68 15.019ZM154.181 6.9C156.42 6.9 158.137 7.32933 159.333 8.188C160.545 9.03133 161.15 10.2963 161.15 11.983C161.15 12.903 160.982 13.6927 160.644 14.352C160.322 14.996 159.847 15.525 159.218 15.939C158.605 16.3377 157.854 16.629 156.964 16.813C156.075 16.997 155.071 17.089 153.951 17.089H152.18V23H149.949V7.291C150.578 7.13767 151.276 7.038 152.042 6.992C152.824 6.93067 153.537 6.9 154.181 6.9ZM154.365 8.855C153.415 8.855 152.686 8.878 152.18 8.924V15.18H153.859C154.626 15.18 155.316 15.134 155.929 15.042C156.543 14.9347 157.056 14.766 157.47 14.536C157.9 14.2907 158.229 13.961 158.459 13.547C158.689 13.133 158.804 12.604 158.804 11.96C158.804 11.3467 158.682 10.8407 158.436 10.442C158.206 10.0433 157.884 9.729 157.47 9.499C157.072 9.25367 156.604 9.085 156.067 8.993C155.531 8.901 154.963 8.855 154.365 8.855ZM166.013 23V7.061H175.742V8.97H168.244V13.708H174.914V15.571H168.244V21.091H176.317V23H166.013ZM192.147 23C191.81 22.4327 191.419 21.7963 190.974 21.091C190.545 20.3857 190.077 19.6573 189.571 18.906C189.065 18.1393 188.536 17.365 187.984 16.583C187.448 15.801 186.911 15.0497 186.374 14.329C185.838 13.593 185.316 12.903 184.81 12.259C184.304 11.615 183.837 11.0477 183.407 10.557V23H181.222V7.061H182.993C183.714 7.82767 184.481 8.72467 185.293 9.752C186.121 10.764 186.934 11.8143 187.731 12.903C188.544 13.9763 189.303 15.0343 190.008 16.077C190.729 17.1197 191.335 18.0473 191.825 18.86V7.061H194.01V23H192.147ZM133.681 49.413C136.012 49.413 137.177 48.6157 137.177 47.021C137.177 46.5303 137.07 46.1163 136.855 45.779C136.656 45.4263 136.38 45.1273 136.027 44.882C135.674 44.6213 135.268 44.399 134.808 44.215C134.363 44.031 133.888 43.847 133.382 43.663C132.799 43.4637 132.247 43.2413 131.726 42.996C131.205 42.7353 130.752 42.4363 130.369 42.099C129.986 41.7463 129.679 41.3323 129.449 40.857C129.234 40.3817 129.127 39.8067 129.127 39.132C129.127 37.7367 129.602 36.648 130.553 35.866C131.504 35.084 132.815 34.693 134.486 34.693C135.452 34.693 136.326 34.8003 137.108 35.015C137.905 35.2143 138.488 35.4367 138.856 35.682L138.143 37.499C137.821 37.2997 137.338 37.108 136.694 36.924C136.065 36.7247 135.329 36.625 134.486 36.625C134.057 36.625 133.658 36.671 133.29 36.763C132.922 36.855 132.6 36.993 132.324 37.177C132.048 37.361 131.826 37.5987 131.657 37.89C131.504 38.166 131.427 38.4957 131.427 38.879C131.427 39.3083 131.511 39.6687 131.68 39.96C131.849 40.2513 132.086 40.512 132.393 40.742C132.7 40.9567 133.052 41.156 133.451 41.34C133.865 41.524 134.317 41.708 134.808 41.892C135.498 42.168 136.127 42.444 136.694 42.72C137.277 42.996 137.775 43.3257 138.189 43.709C138.618 44.0923 138.948 44.5523 139.178 45.089C139.408 45.6103 139.523 46.2467 139.523 46.998C139.523 48.3933 139.009 49.4667 137.982 50.218C136.97 50.9693 135.536 51.345 133.681 51.345C133.052 51.345 132.47 51.299 131.933 51.207C131.412 51.1303 130.944 51.0383 130.53 50.931C130.116 50.8083 129.756 50.6857 129.449 50.563C129.158 50.425 128.928 50.31 128.759 50.218L129.426 48.378C129.779 48.5773 130.315 48.7997 131.036 49.045C131.757 49.2903 132.638 49.413 133.681 49.413ZM143.645 43.019C143.645 41.6543 143.845 40.4507 144.243 39.408C144.657 38.3653 145.209 37.499 145.899 36.809C146.605 36.1037 147.417 35.5747 148.337 35.222C149.273 34.8693 150.262 34.693 151.304 34.693C152.332 34.693 153.298 34.8693 154.202 35.222C155.122 35.5747 155.927 36.1037 156.617 36.809C157.307 37.499 157.852 38.3653 158.25 39.408C158.664 40.4507 158.871 41.6543 158.871 43.019C158.871 44.3837 158.664 45.5873 158.25 46.63C157.852 47.6727 157.307 48.5467 156.617 49.252C155.927 49.942 155.122 50.4633 154.202 50.816C153.298 51.1687 152.332 51.345 151.304 51.345C150.262 51.345 149.273 51.1687 148.337 50.816C147.417 50.4633 146.605 49.942 145.899 49.252C145.209 48.5467 144.657 47.6727 144.243 46.63C143.845 45.5873 143.645 44.3837 143.645 43.019ZM145.991 43.019C145.991 43.985 146.114 44.8667 146.359 45.664C146.605 46.446 146.95 47.113 147.394 47.665C147.854 48.217 148.406 48.6463 149.05 48.953C149.71 49.2443 150.446 49.39 151.258 49.39C152.071 49.39 152.799 49.2443 153.443 48.953C154.087 48.6463 154.632 48.217 155.076 47.665C155.536 47.113 155.889 46.446 156.134 45.664C156.38 44.8667 156.502 43.985 156.502 43.019C156.502 42.053 156.38 41.179 156.134 40.397C155.889 39.5997 155.536 38.925 155.076 38.373C154.632 37.821 154.087 37.3993 153.443 37.108C152.799 36.8013 152.071 36.648 151.258 36.648C150.446 36.648 149.71 36.8013 149.05 37.108C148.406 37.3993 147.854 37.821 147.394 38.373C146.95 38.925 146.605 39.5997 146.359 40.397C146.114 41.179 145.991 42.053 145.991 43.019ZM164.261 51V35.061H173.875V36.97H166.492V41.777H173.047V43.663H166.492V51H164.261ZM189.648 35.061V36.993H184.634V51H182.403V36.993H177.389V35.061H189.648ZM203.172 40.19C202.528 42.2447 201.877 44.146 201.217 45.894C200.558 47.642 199.899 49.344 199.239 51H197.008C196.196 48.654 195.475 46.1777 194.846 43.571C194.233 40.9643 193.658 38.1277 193.121 35.061H195.467C195.682 36.257 195.904 37.453 196.134 38.649C196.364 39.845 196.602 41.0103 196.847 42.145C197.093 43.2643 197.338 44.3377 197.583 45.365C197.829 46.3923 198.082 47.343 198.342 48.217C198.956 46.607 199.607 44.8437 200.297 42.927C200.987 40.995 201.631 39.0017 202.229 36.947H204.161C204.759 39.0017 205.411 40.995 206.116 42.927C206.822 44.8437 207.481 46.607 208.094 48.217C208.34 47.3583 208.585 46.4153 208.83 45.388C209.076 44.3607 209.313 43.2873 209.543 42.168C209.789 41.0333 210.026 39.868 210.256 38.672C210.486 37.4607 210.709 36.257 210.923 35.061H213.2C212.648 38.1277 212.058 40.9643 211.429 43.571C210.816 46.1777 210.111 48.654 209.313 51H207.082C206.408 49.344 205.748 47.642 205.104 45.894C204.46 44.146 203.816 42.2447 203.172 40.19ZM228.13 51C227.87 50.31 227.624 49.6353 227.394 48.976C227.164 48.3013 226.927 47.619 226.681 46.929H219.459L218.01 51H215.687C216.301 49.3133 216.876 47.757 217.412 46.331C217.949 44.8897 218.47 43.525 218.976 42.237C219.498 40.949 220.011 39.7223 220.517 38.557C221.023 37.3763 221.552 36.211 222.104 35.061H224.151C224.703 36.211 225.232 37.3763 225.738 38.557C226.244 39.7223 226.75 40.949 227.256 42.237C227.778 43.525 228.307 44.8897 228.843 46.331C229.38 47.757 229.955 49.3133 230.568 51H228.13ZM226.037 45.089C225.547 43.755 225.056 42.467 224.565 41.225C224.09 39.9677 223.592 38.764 223.07 37.614C222.534 38.764 222.02 39.9677 221.529 41.225C221.054 42.467 220.579 43.755 220.103 45.089H226.037ZM242.599 44.33C242.845 44.6367 243.151 45.043 243.519 45.549C243.903 46.0397 244.294 46.5917 244.692 47.205C245.091 47.803 245.482 48.4317 245.865 49.091C246.264 49.7503 246.601 50.3867 246.877 51H244.439C244.133 50.4173 243.795 49.827 243.427 49.229C243.075 48.631 242.714 48.0637 242.346 47.527C241.978 46.975 241.61 46.4613 241.242 45.986C240.89 45.5107 240.568 45.0967 240.276 44.744C240.077 44.7593 239.87 44.767 239.655 44.767C239.456 44.767 239.249 44.767 239.034 44.767H237.033V51H234.802V35.291C235.431 35.1377 236.129 35.038 236.895 34.992C237.677 34.9307 238.39 34.9 239.034 34.9C241.273 34.9 242.975 35.3217 244.14 36.165C245.321 37.0083 245.911 38.2657 245.911 39.937C245.911 40.995 245.628 41.8997 245.06 42.651C244.508 43.4023 243.688 43.962 242.599 44.33ZM239.218 36.855C238.268 36.855 237.539 36.878 237.033 36.924V42.927H238.62C239.387 42.927 240.077 42.8887 240.69 42.812C241.304 42.7353 241.817 42.5897 242.231 42.375C242.661 42.1603 242.99 41.8613 243.22 41.478C243.45 41.0793 243.565 40.558 243.565 39.914C243.565 39.316 243.45 38.8177 243.22 38.419C242.99 38.0203 242.676 37.706 242.277 37.476C241.894 37.246 241.434 37.085 240.897 36.993C240.376 36.901 239.816 36.855 239.218 36.855ZM251.337 51V35.061H261.066V36.97H253.568V41.708H260.238V43.571H253.568V49.091H261.641V51H251.337Z" fill="white"/>
<path fill-rule="evenodd" clip-rule="evenodd" d="M40 6.00302C17.8629 6.27084 0 24.2994 0 46.5C0 68.8675 18.1325 87 40.5 87C62.8675 87 81 68.8675 81 46.5C81 46.3331 80.999 46.1664 80.997 46H68.9957C68.9986 46.1663 69 46.333 69 46.5C69 62.2401 56.2401 75 40.5 75C24.7599 75 12 62.2401 12 46.5C12 30.9269 24.4906 18.2711 40 18.0043V6.00302Z" fill="white"/>
<path fill-rule="evenodd" clip-rule="evenodd" d="M109 5C86.863 5.26757 69 23.2964 69 45.4971C69 45.6641 69.001 45.8306 69.0029 45.9971H81.0044C81.0015 45.8306 81 45.6641 81 45.4971C81 29.9238 93.4905 17.2681 109 17.0015L109 5Z" fill="white"/>
</svg>
